DBRep_DrawableShape

CASCADE Topology V1, (c) Matra-Datavision
Locations 4
1
              1               0               0               1 
              0               1               0               0 
              0               0               1               0 
2  1 -1 0
1
              1               0               0               1 
              0               1               0               0 
              0               0               1               0 
2  3 -1 0
Curve2ds 24
1 0 0 1 0 
1 0 0 1 0 
1 1 0 0 -1 
1 0 0 0 1 
1 0 -1 1 0 
1 0 0 1 0 
1 0 0 0 -1 
1 0 0 0 1 
1 0 0 1 0 
1 0 1 1 0 
1 1 0 0 -1 
1 1 0 0 1 
1 0 -1 1 0 
1 0 1 1 0 
1 0 0 0 -1 
1 1 0 0 1 
1 0 0 0 1 
1 0 0 1 0 
1 1 0 0 1 
1 0 0 1 0 
1 0 0 0 1 
1 0 1 1 0 
1 1 0 0 1 
1 0 1 1 0 
Curves 16
1 0 0 0 0 0 1 
1 0 0 1 -0 1 0 
1 0 1 0 0 0 1 
1 0 0 0 -0 1 0 
1 1 0 0 0 0 1 
1 1 0 1 0 1 0 
1 1 1 0 0 0 1 
1 1 0 0 -0 1 0 
1 0 0 0 1 0 -0 
1 0 0 1 1 0 -0 
1 0 1 0 1 0 -0 
1 0 1 1 1 0 -0 
1 1 0 1 1 0 0 
1 1 0 0 1 0 0 
1 1 1 1 1 0 0 
1 1 1 0 1 0 0 
Polygon3D 0
PolygonOnTriangulations 52
2 1 2 
p 0.0040000008 1 0 1 
2 1 4 
p 0.0040000008 1 0 1 
2 2 3 
p 0.0040000008 1 0 1 
2 1 2 
p 0.0040000008 1 0 1 
2 4 3 
p 0.0040000008 1 0 1 
2 1 4 
p 0.0040000008 1 0 1 
2 1 4 
p 0.0040000008 1 0 1 
2 1 2 
p 0.0040000008 1 0 1 
2 1 2 
p 0.0040000008 1 0 1 
2 2 3 
p 0.0040000008 1 0 1 
2 2 3 
p 0.0040000008 1 0 1 
2 4 2 
p 0.10000002 1 0 1 
2 3 1 
p 0.10000002 1 0 1 
2 4 2 
p 0.10000002 1 0 1 
2 3 1 
p 0.10000002 1 0 1 
2 2 3 
p 0.0040000008 1 0 1 
2 4 3 
p 0.0040000008 1 0 1 
2 4 3 
p 0.0040000008 1 0 1 
2 4 2 
p 0.10000002 1 0 1 
2 3 1 
p 0.10000002 1 0 1 
2 4 2 
p 0.10000002 1 0 1 
2 3 1 
p 0.10000002 1 0 1 
2 4 3 
p 0.0040000008 1 0 1 
2 2 3 
p 0.0040000008 1 0 1 
2 2 3 
p 0.0040000008 1 0 1 
2 4 2 
p 0.10000002 1 0 1 
2 3 1 
p 0.10000002 1 0 1 
2 4 2 
p 0.10000002 1 0 1 
2 3 1 
p 0.10000002 1 0 1 
2 1 4 
p 0.0040000008 1 0 1 
2 4 3 
p 0.0040000008 1 0 1 
2 4 3 
p 0.0040000008 1 0 1 
2 3 1 
p 0.10000002 1 0 1 
2 4 2 
p 0.10000002 1 0 1 
2 3 1 
p 0.10000002 1 0 1 
2 4 2 
p 0.10000002 1 0 1 
2 1 2 
p 0.0040000008 1 0 1 
2 1 4 
p 0.0040000008 1 0 1 
2 4 3 
p 0.0040000008 1 0 1 
2 1 4 
p 0.0040000008 1 0 1 
2 1 2 
p 0.0040000008 1 0 1 
2 2 3 
p 0.0040000008 1 0 1 
2 4 3 
p 0.0040000008 1 0 1 
2 2 3 
p 0.0040000008 1 0 1 
2 1 2 
p 0.10000002 1 0 1 
2 3 4 
p 0.10000002 1 0 1 
2 3 4 
p 0.10000002 1 0 1 
2 3 4 
p 0.10000002 1 0 1 
2 1 2 
p 0.10000002 1 0 1 
2 1 2 
p 0.10000002 1 0 1 
2 3 4 
p 0.10000002 1 0 1 
2 1 2 
p 0.10000002 1 0 1 
Surfaces 10
1 0 0 0 1 0 -0 0 0 1 0 -1 0 
1 0 0 0 -0 1 0 0 0 1 1 0 -0 
1 0 0 1 0 0 1 1 0 -0 -0 1 0 
1 0 1 0 -0 1 0 0 0 1 1 0 -0 
1 0 0 0 0 0 1 1 0 -0 -0 1 0 
1 1 0 0 1 0 -0 0 0 1 0 -1 0 
1 1 0 0 0 -1 0 0 0 1 -1 0 0 
1 1 0 1 0 0 1 0 1 0 -1 0 0 
1 1 1 0 0 -1 0 0 0 1 -1 0 0 
1 1 0 0 0 -0 1 -0 1 0 -1 -0 0 
Triangulations 18
4 2 1 0
0 0 0 0 0 1 0 1 1 0 1 0 0 0 1 0 1 -1 0 -1 1 4 3 3 2 1 
4 2 1 0
0 0 0 1 0 0 1 0 1 0 0 1 0 0 0 1 1 1 1 0 2 1 4 4 3 2 
4 2 1 0
0 0 1 0 1 1 1 1 1 1 0 1 0 0 0 1 1 1 1 0 2 1 4 4 3 2 
4 2 1 0
0 1 0 1 1 0 1 1 1 0 1 1 0 0 0 1 1 1 1 0 2 1 4 4 3 2 
4 2 1 0
0 0 0 0 1 0 1 1 0 1 0 0 0 0 0 1 1 1 1 0 2 1 4 4 3 2 
4 2 1 0
1 0 0 1 0 1 1 1 1 1 1 0 0 0 1 0 1 -1 0 -1 1 4 3 3 2 1 
4 2 1 0
0 0 0 1 0 0 1 0 1 0 0 1 0 0 0 1 1 1 1 0 2 1 4 4 3 2 
4 2 1 0
1 0 1 2 0 1 1 0 0 2 0 0 1 0 1 -1 0 0 0 -1 3 4 2 2 1 3 
4 2 1 0
1 0 1 2 0 1 1 0 0 2 0 0 1 0 1 -1 0 0 0 -1 3 4 2 2 1 3 
4 2 1 0
0 0 1 0 1 1 1 1 1 1 0 1 0 0 0 1 1 1 1 0 2 1 4 4 3 2 
4 2 1 0
1 1 1 2 1 1 1 0 1 2 0 1 1 0 1 -1 0 0 0 -1 3 4 2 2 1 3 
4 2 1 0
1 1 1 2 1 1 1 0 1 2 0 1 1 0 1 -1 0 0 0 -1 3 4 2 2 1 3 
4 2 1 0
0 1 0 1 1 0 1 1 1 0 1 1 0 0 0 1 1 1 1 0 2 1 4 4 3 2 
4 2 1 0
1 1 1 2 1 1 1 1 0 2 1 0 1 0 1 -1 0 0 0 -1 3 4 2 2 1 3 
4 2 1 0
1 1 1 2 1 1 1 1 0 2 1 0 1 0 1 -1 0 0 0 -1 3 4 2 2 1 3 
4 2 1 0
0 0 0 0 1 0 1 1 0 1 0 0 0 0 0 1 1 1 1 0 2 1 4 4 3 2 
4 2 1 0
1 1 0 2 1 0 1 0 0 2 0 0 1 0 1 -1 0 0 0 -1 3 4 2 2 1 3 
4 2 1 0
1 1 0 2 1 0 1 0 0 2 0 0 1 0 1 -1 0 0 0 -1 3 4 2 2 1 3 

TShapes 49
Ve
1e-07
0 0 1
0 0

0101101
*
Ve
1e-07
0 0 0
0 0

0101101
*
Ed
 1e-07 1 1 0
1  1 0 0 1
2  1 1 0 0 1
2  2 2 0 0 1
6  1 1 0
6  2 2 0
0

0101000
-49 0 +48 0 *
Ve
1e-07
0 1 1
0 0

0101101
*
Ed
 1e-07 1 1 0
1  2 0 0 1
2  3 1 0 0 1
2  4 3 0 0 1
6  3 1 0
6  4 3 0
0

0101000
-46 0 +49 0 *
Ve
1e-07
0 1 0
0 0

0101101
*
Ed
 1e-07 1 1 0
1  3 0 0 1
2  5 1 0 0 1
2  6 4 0 0 1
6  5 1 0
6  6 4 0
0

0101000
-46 0 +44 0 *
Ed
 1e-07 1 1 0
1  4 0 0 1
2  7 1 0 0 1
2  8 5 0 0 1
6  7 1 0
6  8 5 0
0

0101000
-44 0 +48 0 *
Wi

0101000
-47 0 -45 0 +43 0 +42 0 *
Fa
0  1e-07 1 0
2  1
0111000
+41 0 *
Ve
1e-07
1 0 1
0 0

0101101
*
Ve
1e-07
1 0 0
0 0

0101101
*
Ed
 1e-07 1 1 0
1  5 0 0 1
2  9 6 0 0 1
2  10 2 0 0 1
6  9 6 0
6  10 2 0
6  11 7 0
6  12 8 2
6  13 8 0
6  14 9 4
6  15 9 0
0

0101000
-39 0 +38 0 *
Ve
1e-07
1 1 1
0 0

0101101
*
Ed
 1e-07 1 1 0
1  6 0 0 1
2  11 6 0 0 1
2  12 3 0 0 1
6  16 6 0
6  17 3 0
6  18 10 0
6  19 11 2
6  20 11 0
6  21 12 4
6  22 12 0
0

0101000
-36 0 +39 0 *
Ve
1e-07
1 1 0
0 0

0101101
*
Ed
 1e-07 1 1 0
1  7 0 0 1
2  13 6 0 0 1
2  14 4 0 0 1
6  23 6 0
6  24 4 0
6  25 13 0
6  26 14 2
6  27 14 0
6  28 15 4
6  29 15 0
0

0101000
-36 0 +34 0 *
Ed
 1e-07 1 1 0
1  8 0 0 1
2  15 6 0 0 1
2  16 5 0 0 1
6  30 6 0
6  31 5 0
6  32 16 0
6  33 17 0
6  34 17 2
6  35 18 0
6  36 18 4
0

0101000
-34 0 +38 0 *
Wi

0101000
-37 0 -35 0 +33 0 +32 0 *
Fa
0  1e-07 6 0
2  6
0111000
+31 0 *
Ed
 1e-07 1 1 0
1  9 0 0 1
2  17 2 0 0 1
2  18 5 0 0 1
6  37 2 0
6  38 5 0
0

0101000
-38 0 +48 0 *
Ed
 1e-07 1 1 0
1  10 0 0 1
2  19 2 0 0 1
2  20 3 0 0 1
6  39 2 0
6  40 3 0
0

0101000
-39 0 +49 0 *
Wi

0101000
-29 0 -37 0 +28 0 +47 0 *
Fa
0  1e-07 2 0
2  2
0111000
+27 0 *
Ed
 1e-07 1 1 0
1  11 0 0 1
2  21 4 0 0 1
2  22 5 0 0 1
6  41 4 0
6  42 5 0
0

0101000
-34 0 +44 0 *
Ed
 1e-07 1 1 0
1  12 0 0 1
2  23 4 0 0 1
2  24 3 0 0 1
6  43 4 0
6  44 3 0
0

0101000
-36 0 +46 0 *
Wi

0101000
-25 0 -33 0 +24 0 +43 0 *
Fa
0  1e-07 4 0
2  4
0111000
+23 0 *
Wi

0101000
-42 0 -25 0 +32 0 +29 0 *
Fa
0  1e-07 5 0
2  5
0111000
+21 0 *
Wi

0101000
-45 0 -24 0 +35 0 +28 0 *
Fa
0  1e-07 3 0
2  3
0111000
+19 0 *
Sh

0101100
-40 0 +30 0 -26 0 +22 0 -20 0 +18 0 *
So

0100000
+17 0 *
Ed
 1e-07 1 1 0
1  13 0 0 1
6  45 9 0
6  46 12 0
0

0101000
+39 0 -39 3 *
Ed
 1e-07 1 1 0
1  14 0 0 1
6  47 9 0
6  48 18 0
0

0101000
+38 0 -38 3 *
Wi

0101000
-15 0 +14 0 -37 0 +37 3 *
Fa
0  1e-07 7 0
2  9
0111000
+13 0 *
Ed
 1e-07 1 1 0
1  15 0 0 1
6  49 12 0
6  50 15 0
0

0101000
+36 0 -36 3 *
Wi

0101000
-11 0 +15 0 -35 0 +35 3 *
Fa
0  1e-07 8 0
2  12
0111000
+10 0 *
Ed
 1e-07 1 1 0
1  16 0 0 1
6  51 15 0
6  52 18 0
0

0101000
+34 0 -34 3 *
Wi

0101000
-11 0 +8 0 -33 0 +33 3 *
Fa
0  1e-07 9 0
2  15
0111000
+7 0 *
Wi

0101000
-8 0 +14 0 -32 0 +32 3 *
Fa
0  1e-07 10 0
2  18
0111000
+5 0 *
Sh

0101000
-12 0 -9 0 +6 0 +4 0 +30 0 -30 3 *
So

0100000
-3 0 *
Co

1100000
+16 0 +2 0 *

+1 0 