DBRep_DrawableShape

CASCADE Topology V1, (c) Matra-Datavision
Locations 0
Curve2ds 6
1 0 2.2316137658654109 1 0 
2 0 0 1 0 -0 1 0.010000000000000009
1 6.2831853071795862 -0 0 1 
1 0 -0 0 1 
1 0 0 1 0 
2 0 0 1 0 -0 1 1
Curves 3
2 0 0 2.0000000000000004 0 0 1 1 0 -0 -0 1 0 0.010000000000000009
1 1 -2.4492127076447545e-16 0 -0.44362515375328937 1.0865323640034144e-16 0.89621243182482713 
2 0 0 0 0 0 1 1 0 -0 -0 1 0 1
Polygon3D 0
PolygonOnTriangulations 5
34 1 2 3 4 5 6 7 8 9 10 11 12 13 14 15 16 17 18 19 20 21 22 23 24 25 26 27 28 29 30 31 32 33 1 
p 8.65921756485477e-05 1 0 0.190399554763018 0.380799109526036 0.571198664289053 0.761598219052071 0.951997773815089 1.14239732857811 1.33279688334112 1.52319643810414 1.71359599286716 1.90399554763018 2.0943951023932 2.28479465715621 2.47519421191923 2.66559376668225 2.85599332144527 3.04639287620829 3.2367924309713 3.42719198573432 3.61759154049734 3.80799109526036 3.99839065002337 4.18879020478639 4.37918975954941 4.56958931431243 4.75998886907545 4.95038842383846 5.14078797860148 5.3311875333645 5.52158708812752 5.71198664289054 5.90238619765355 6.09278575241657 6.28318530717959 
2 27 2 
p 0.00865913927555084 1 0 2.23161376586541 
2 28 1 
p 0.00865913927555084 1 0 2.23161376586541 
34 28 29 30 31 32 33 34 35 36 37 38 39 40 41 42 43 44 45 46 47 48 49 50 51 52 53 54 55 56 57 58 59 60 27 
p 0.00865913927555084 1 0 0.190399554763018 0.380799109526036 0.571198664289053 0.761598219052071 0.951997773815089 1.14239732857811 1.33279688334112 1.52319643810414 1.71359599286716 1.90399554763018 2.0943951023932 2.28479465715621 2.47519421191923 2.66559376668225 2.85599332144527 3.04639287620829 3.2367924309713 3.42719198573432 3.61759154049734 3.80799109526036 3.99839065002337 4.18879020478639 4.37918975954941 4.56958931431243 4.75998886907545 4.95038842383846 5.14078797860148 5.3311875333645 5.52158708812752 5.71198664289054 5.90238619765355 6.09278575241657 6.28318530717959 
34 1 2 3 4 5 6 7 8 9 10 11 12 13 14 15 16 17 18 19 20 21 22 23 24 25 26 27 28 29 30 31 32 33 1 
p 0.00865913927555084 1 0 0.190399554763018 0.380799109526036 0.571198664289053 0.761598219052071 0.951997773815089 1.14239732857811 1.33279688334112 1.52319643810414 1.71359599286716 1.90399554763018 2.0943951023932 2.28479465715621 2.47519421191923 2.66559376668225 2.85599332144527 3.04639287620829 3.2367924309713 3.42719198573432 3.61759154049734 3.80799109526036 3.99839065002337 4.18879020478639 4.37918975954941 4.56958931431243 4.75998886907545 4.95038842383846 5.14078797860148 5.3311875333645 5.52158708812752 5.71198664289054 5.90238619765355 6.09278575241657 6.28318530717959 
Surfaces 3
3 0 0 0 0 0 1 1 0 -0 -0 1 0 1
-0.45963961443038215
1 0 0 2.0000000000000004 0 0 1 1 0 -0 -0 1 0 
1 0 0 0 0 0 1 1 0 -0 -0 1 0 
Triangulations 3
60 58 1 0.00270738329200976
0.01 -2.44921270764476e-18 2 0.01 -2.44921270764476e-18 2 0.00968583161128632 0.00248689887164855 2 0.00876306680043864 0.00481753674101716 2 0.00728968627421412 0.00684547105928689 2 0.00535826794978997 0.00844327925502016 2 0.00309016994374948 0.00951056516295154 2 0.000627905195293136 0.00998026728428273 2 -0.00187381314585725 0.0098228725072869 2 -0.00425779291565073 0.0090482705246602 2 -0.0063742398974869 0.0077051324277579 2 -0.00809016994374948 0.00587785252292474 2 -0.00929776485888252 0.00368124552684679 2 -0.00992114701314479 0.00125333233564305 2 -0.00992114701314479 -0.00125333233564304 2 -0.00929776485888253 -0.00368124552684677 2 -0.00809016994374949 -0.00587785252292473 2 -0.00637423989748691 -0.0077051324277579 2 -0.00425779291565073 -0.0090482705246602 2 -0.00187381314585725 -0.0098228725072869 2 0.000627905195293138 -0.00998026728428273 2 0.00309016994374948 -0.00951056516295154 2 0.00535826794978998 -0.00844327925502015 2 0.00728968627421413 -0.00684547105928688 2 0.00876306680043865 -0.00481753674101714 2 0.00968583161128632 -0.00248689887164853 2 1 -2.44921270764475e-16 0 1 -2.44921270764475e-16 0 0.981928697262707 0.18925124436041 0 0.928367933016073 0.371662455660328 0 0.841253532831181 0.540640817455598 0 0.72373403810507 0.690079011482112 0 0.580056909571198 0.814575952050336 0 0.415415013001886 0.909631995354518 0 0.235758935509427 0.971811568323542 0 0.0475819158237424 0.998867339183008 0 -0.142314838273285 0.989821441880933 0 -0.327067963317421 0.945000818714669 0 -0.5 0.866025403784439 0 -0.654860733945285 0.755749574354258 0 -0.786053094742788 0.618158986220605 0 -0.888835448654924 0.45822652172741 0 -0.959492973614497 0.281732556841429 0 -0.995471922573085 0.095056043304182 0 -0.995471922573084 -0.0950560433041835 0 -0.959492973614497 -0.281732556841431 0 -0.888835448654923 -0.458226521727411 0 -0.786053094742787 -0.618158986220606 0 -0.654860733945284 -0.755749574354259 0 -0.499999999999999 -0.866025403784439 0 -0.32706796331742 -0.945000818714669 0 -0.142314838273283 -0.989821441880933 0 0.0475819158237442 -0.998867339183008 0 0.235758935509429 -0.971811568323541 0 0.415415013001888 -0.909631995354517 0 0.5800569095712 -0.814575952050334 0 0.723734038105072 -0.69007901148211 0 0.841253532831183 -0.540640817455595 0 0.928367933016074 -0.371662455660325 0 0.981928697262707 -0.189251244360407 0 0 2.23161376586541 6.28318530717959 2.23161376586541 0.251327412287183 2.23161376586541 0.502654824574367 2.23161376586541 0.75398223686155 2.23161376586541 1.00530964914873 2.23161376586541 1.25663706143592 2.23161376586541 1.5079644737231 2.23161376586541 1.75929188601028 2.23161376586541 2.01061929829747 2.23161376586541 2.26194671058465 2.23161376586541 2.51327412287183 2.23161376586541 2.76460153515902 2.23161376586541 3.0159289474462 2.23161376586541 3.26725635973338 2.23161376586541 3.51858377202057 2.23161376586541 3.76991118430775 2.23161376586541 4.02123859659493 2.23161376586541 4.27256600888212 2.23161376586541 4.5238934211693 2.23161376586541 4.77522083345649 2.23161376586541 5.02654824574367 2.23161376586541 5.27787565803085 2.23161376586541 5.52920307031804 2.23161376586541 5.78053048260522 2.23161376586541 6.03185789489241 2.23161376586541 6.28318530717959 0 0 0 0.190399554763018 0 0.380799109526036 0 0.571198664289053 0 0.761598219052071 0 0.951997773815089 0 1.14239732857811 0 1.33279688334112 0 1.52319643810414 0 1.71359599286716 0 1.90399554763018 0 2.0943951023932 0 2.28479465715621 0 2.47519421191923 0 2.66559376668225 0 2.85599332144527 0 3.04639287620829 0 3.2367924309713 0 3.42719198573432 0 3.61759154049734 0 3.80799109526036 0 3.99839065002337 0 4.18879020478639 0 4.37918975954941 0 4.56958931431243 0 4.75998886907545 0 4.95038842383846 0 5.14078797860148 0 5.3311875333645 0 5.52158708812752 0 5.71198664289054 0 5.90238619765355 0 6.09278575241657 0 28 29 1 29 30 3 31 32 5 33 34 6 32 33 5 30 31 4 35 36 8 37 38 9 36 37 8 39 40 11 41 42 12 40 41 11 38 39 10 34 35 7 1 29 3 3 30 4 5 33 6 7 35 8 34 7 6 31 5 4 9 38 10 39 11 10 8 37 9 14 43 44 11 41 12 14 13 43 42 13 12 44 15 14 43 13 42 45 46 15 46 47 16 48 49 18 50 51 19 49 50 18 47 48 17 52 53 21 54 55 22 53 54 21 56 57 24 58 59 25 57 58 24 55 56 23 51 52 20 15 46 16 16 47 17 18 50 19 20 52 21 51 20 19 48 18 17 22 55 23 56 24 23 21 54 22 2 60 27 24 58 25 2 26 60 59 26 25 60 26 59 45 15 44 
34 33 1 0
0.01 -2.44921270764476e-18 2 0.00981928697262708 0.0018925124436041 2 0.00928367933016074 0.00371662455660328 2 0.00841253532831182 0.00540640817455598 2 0.00723734038105071 0.00690079011482113 2 0.00580056909571199 0.00814575952050336 2 0.00415415013001887 0.00909631995354519 2 0.00235758935509427 0.00971811568323543 2 0.000475819158237424 0.00998867339183009 2 -0.00142314838273285 0.00989821441880934 2 -0.00327067963317422 0.00945000818714669 2 -0.005 0.0086602540378444 2 -0.00654860733945286 0.00755749574354259 2 -0.00786053094742788 0.00618158986220606 2 -0.00888835448654924 0.00458226521727411 2 -0.00959492973614498 0.00281732556841429 2 -0.00995471922573085 0.000950560433041821 2 -0.00995471922573085 -0.000950560433041836 2 -0.00959492973614498 -0.00281732556841431 2 -0.00888835448654924 -0.00458226521727412 2 -0.00786053094742787 -0.00618158986220607 2 -0.00654860733945284 -0.0075574957435426 2 -0.00499999999999999 -0.0086602540378444 2 -0.00327067963317421 -0.0094500081871467 2 -0.00142314838273284 -0.00989821441880934 2 0.000475819158237442 -0.00998867339183009 2 0.00235758935509429 -0.00971811568323542 2 0.00415415013001889 -0.00909631995354518 2 0.00580056909571201 -0.00814575952050335 2 0.00723734038105073 -0.00690079011482111 2 0.00841253532831183 -0.00540640817455596 2 0.00928367933016075 -0.00371662455660325 2 0.00981928697262708 -0.00189251244360407 2 2.2640387134577e-05 8.67361737988404e-19 2 0.01 0 0.00981928697262708 0.0018925124436041 0.00928367933016074 0.00371662455660328 0.00841253532831182 0.00540640817455598 0.00723734038105071 0.00690079011482113 0.00580056909571199 0.00814575952050336 0.00415415013001887 0.00909631995354519 0.00235758935509428 0.00971811568323542 0.000475819158237424 0.00998867339183009 -0.00142314838273285 0.00989821441880934 -0.00327067963317422 0.0094500081871467 -0.005 0.0086602540378444 -0.00654860733945286 0.00755749574354259 -0.00786053094742788 0.00618158986220606 -0.00888835448654924 0.00458226521727411 -0.00959492973614498 0.0028173255684143 -0.00995471922573085 0.000950560433041821 -0.00995471922573085 -0.000950560433041836 -0.00959492973614498 -0.00281732556841431 -0.00888835448654924 -0.00458226521727412 -0.00786053094742787 -0.00618158986220607 -0.00654860733945284 -0.0075574957435426 -0.00499999999999999 -0.0086602540378444 -0.00327067963317421 -0.0094500081871467 -0.00142314838273284 -0.00989821441880934 0.000475819158237443 -0.00998867339183009 0.00235758935509429 -0.00971811568323542 0.00415415013001889 -0.00909631995354518 0.00580056909571201 -0.00814575952050335 0.00723734038105072 -0.00690079011482111 0.00841253532831183 -0.00540640817455596 0.00928367933016075 -0.00371662455660325 0.00981928697262708 -0.00189251244360407 2.2640387134577e-05 1.73472347597681e-18 19 20 34 34 18 19 21 34 20 23 24 34 34 22 23 22 34 21 25 34 24 34 15 16 34 14 15 16 17 34 13 34 12 34 13 14 34 11 12 11 34 10 34 9 10 17 18 34 25 26 34 27 28 34 28 29 34 34 29 30 31 32 34 33 34 32 31 34 30 1 34 33 7 8 34 34 6 7 9 34 8 3 34 2 5 6 34 34 3 4 5 34 4 34 1 2 26 27 34 
34 33 1 0
1 -2.44921270764475e-16 0 0.981928697262707 0.18925124436041 0 0.928367933016073 0.371662455660328 0 0.841253532831181 0.540640817455598 0 0.72373403810507 0.690079011482112 0 0.580056909571198 0.814575952050336 0 0.415415013001886 0.909631995354518 0 0.235758935509427 0.971811568323542 0 0.0475819158237424 0.998867339183008 0 -0.142314838273285 0.989821441880933 0 -0.327067963317421 0.945000818714669 0 -0.5 0.866025403784439 0 -0.654860733945285 0.755749574354258 0 -0.786053094742788 0.618158986220605 0 -0.888835448654924 0.45822652172741 0 -0.959492973614497 0.281732556841429 0 -0.995471922573085 0.095056043304182 0 -0.995471922573084 -0.0950560433041835 0 -0.959492973614497 -0.281732556841431 0 -0.888835448654923 -0.458226521727411 0 -0.786053094742787 -0.618158986220606 0 -0.654860733945284 -0.755749574354259 0 -0.499999999999999 -0.866025403784439 0 -0.32706796331742 -0.945000818714669 0 -0.142314838273283 -0.989821441880933 0 0.0475819158237442 -0.998867339183008 0 0.235758935509429 -0.971811568323541 0 0.415415013001888 -0.909631995354517 0 0.5800569095712 -0.814575952050334 0 0.723734038105072 -0.69007901148211 0 0.841253532831183 -0.540640817455595 0 0.928367933016074 -0.371662455660325 0 0.981928697262707 -0.189251244360407 0 0.00226403871345765 5.55111512312578e-17 0 1 -2.22044604925031e-16 0.981928697262707 0.18925124436041 0.928367933016073 0.371662455660328 0.841253532831181 0.540640817455597 0.72373403810507 0.690079011482112 0.580056909571198 0.814575952050336 0.415415013001886 0.909631995354518 0.235758935509427 0.971811568323542 0.0475819158237424 0.998867339183008 -0.142314838273285 0.989821441880933 -0.327067963317421 0.945000818714669 -0.5 0.866025403784439 -0.654860733945285 0.755749574354258 -0.786053094742788 0.618158986220605 -0.888835448654924 0.45822652172741 -0.959492973614497 0.281732556841429 -0.995471922573085 0.095056043304182 -0.995471922573084 -0.0950560433041835 -0.959492973614497 -0.281732556841431 -0.888835448654923 -0.458226521727412 -0.786053094742787 -0.618158986220606 -0.654860733945284 -0.755749574354259 -0.499999999999999 -0.866025403784439 -0.32706796331742 -0.945000818714669 -0.142314838273284 -0.989821441880933 0.0475819158237442 -0.998867339183008 0.235758935509429 -0.971811568323541 0.415415013001888 -0.909631995354517 0.5800569095712 -0.814575952050334 0.723734038105072 -0.69007901148211 0.841253532831183 -0.540640817455595 0.928367933016074 -0.371662455660325 0.981928697262707 -0.189251244360407 0.00226403871345771 0 34 19 20 34 18 19 34 20 21 23 24 34 23 34 22 34 21 22 25 34 24 34 15 16 34 14 15 16 17 34 13 34 12 34 13 14 34 11 12 11 34 10 34 9 10 17 18 34 25 26 34 27 28 34 29 34 28 29 30 34 32 34 31 34 32 33 30 31 34 34 33 1 6 7 34 9 34 8 8 34 7 34 2 3 6 34 5 34 3 4 5 34 4 2 34 1 27 34 26 

TShapes 10
Ve
1e-07
0.01 -2.44921270764476e-18 2
0 0

0101101
*
Ed
 1e-07 1 1 0
1  1 0 0 6.28318530717959
2  1 1 0 0 6.28318530717959
2  2 2 0 0 6.28318530717959
6  1 2 0
0

0101100
+10 0 -10 0 *
Ve
1e-07
1 -2.44921270764475e-16 0
0 0

0101101
*
Ed
 1e-07 1 1 0
1  2 0 0 2.23161376586541
3  3 4CN 1 0 0 2.23161376586541
7  2 3 1 0
0

0101000
-10 0 +8 0 *
Ed
 1e-07 1 1 0
1  3 0 0 6.28318530717959
2  5 1 0 0 6.28318530717959
2  6 3 0 0 6.28318530717959
6  4 1 0
6  5 3 0
0

0101100
+8 0 -8 0 *
Wi

0101000
-9 0 +7 0 +6 0 -7 0 *
Fa
0  1e-07 1 0
2  1
0101000
+5 0 *
Sh

0101100
+4 0 *
So

0100100
+3 0 *
Co

1100000
+2 0 *

+1 0 