DBRep_DrawableShape

CASCADE Topology V1, (c) Matra-Datavision
Locations 0
Curve2ds 6
1 0 6 1 0 
2 0 0 1 0 -0 1 1
1 6.2831853071795862 -0 0 1 
1 0 -0 0 1 
1 0 0 1 0 
2 0 0 1 0 -0 1 1
Curves 3
2 0 0 6 0 0 1 1 0 -0 -0 1 0 1
1 1 -2.4492127076447545e-16 0 0 0 1 
2 0 0 0 0 0 1 1 0 -0 -0 1 0 1
Polygon3D 0
PolygonOnTriangulations 4
34 1 2 3 4 5 6 7 8 9 10 11 12 13 14 15 16 17 18 19 20 21 22 23 24 25 26 27 28 29 30 31 32 33 1 
p 0.00865913927555084 1 0 0.190399554763018 0.380799109526036 0.571198664289053 0.761598219052071 0.951997773815089 1.14239732857811 1.33279688334112 1.52319643810414 1.71359599286716 1.90399554763018 2.0943951023932 2.28479465715621 2.47519421191923 2.66559376668225 2.85599332144527 3.04639287620829 3.2367924309713 3.42719198573432 3.61759154049734 3.80799109526036 3.99839065002337 4.18879020478639 4.37918975954941 4.56958931431243 4.75998886907545 4.95038842383846 5.14078797860148 5.3311875333645 5.52158708812752 5.71198664289054 5.90238619765355 6.09278575241657 6.28318530717959 
2 27 2 
p 0.0240000002086163 1 0 6 
2 28 1 
p 0.0240000002086163 1 0 6 
34 1 2 3 4 5 6 7 8 9 10 11 12 13 14 15 16 17 18 19 20 21 22 23 24 25 26 27 28 29 30 31 32 33 1 
p 0.00865913927555084 1 0 0.190399554763018 0.380799109526036 0.571198664289053 0.761598219052071 0.951997773815089 1.14239732857811 1.33279688334112 1.52319643810414 1.71359599286716 1.90399554763018 2.0943951023932 2.28479465715621 2.47519421191923 2.66559376668225 2.85599332144527 3.04639287620829 3.2367924309713 3.42719198573432 3.61759154049734 3.80799109526036 3.99839065002337 4.18879020478639 4.37918975954941 4.56958931431243 4.75998886907545 4.95038842383846 5.14078797860148 5.3311875333645 5.52158708812752 5.71198664289054 5.90238619765355 6.09278575241657 6.28318530717959 
Surfaces 3
2 0 0 0 0 0 1 1 0 -0 -0 1 0 1
1 0 0 6 0 0 1 1 0 -0 -0 1 0 
1 0 0 0 0 0 1 1 0 -0 -0 1 0 
Triangulations 3
52 50 1 0.00788529868552228
1 -2.44921270764475e-16 6 1 -2.44921270764475e-16 6 0.968583161128631 0.248689887164855 6 0.876306680043864 0.481753674101715 6 0.728968627421412 0.684547105928689 6 0.535826794978997 0.844327925502015 6 0.309016994374947 0.951056516295154 6 0.0627905195293135 0.998026728428272 6 -0.187381314585724 0.982287250728689 6 -0.425779291565072 0.90482705246602 6 -0.637423989748689 0.770513242775789 6 -0.809016994374947 0.587785252292474 6 -0.929776485888251 0.368124552684679 6 -0.992114701314478 0.125333233564305 6 -0.992114701314478 -0.125333233564303 6 -0.929776485888252 -0.368124552684677 6 -0.809016994374948 -0.587785252292472 6 -0.63742398974869 -0.770513242775789 6 -0.425779291565073 -0.904827052466019 6 -0.187381314585725 -0.982287250728689 6 0.0627905195293137 -0.998026728428272 6 0.309016994374948 -0.951056516295153 6 0.535826794978998 -0.844327925502015 6 0.728968627421412 -0.684547105928688 6 0.876306680043864 -0.481753674101714 6 0.968583161128632 -0.248689887164853 6 1 -2.44921270764475e-16 0 1 -2.44921270764475e-16 0 0.968583161128631 0.248689887164855 0 0.876306680043864 0.481753674101715 0 0.728968627421412 0.684547105928689 0 0.535826794978997 0.844327925502015 0 0.309016994374947 0.951056516295154 0 0.0627905195293135 0.998026728428272 0 -0.187381314585724 0.982287250728689 0 -0.425779291565072 0.90482705246602 0 -0.637423989748689 0.770513242775789 0 -0.809016994374947 0.587785252292474 0 -0.929776485888251 0.368124552684679 0 -0.992114701314478 0.125333233564305 0 -0.992114701314478 -0.125333233564303 0 -0.929776485888252 -0.368124552684677 0 -0.809016994374948 -0.587785252292472 0 -0.63742398974869 -0.770513242775789 0 -0.425779291565073 -0.904827052466019 0 -0.187381314585725 -0.982287250728689 0 0.0627905195293137 -0.998026728428272 0 0.309016994374948 -0.951056516295153 0 0.535826794978998 -0.844327925502015 0 0.728968627421412 -0.684547105928688 0 0.876306680043864 -0.481753674101714 0 0.968583161128632 -0.248689887164853 0 0 6 6.28318530717959 6 0.251327412287183 6 0.502654824574367 6 0.75398223686155 6 1.00530964914873 6 1.25663706143592 6 1.5079644737231 6 1.75929188601028 6 2.01061929829747 6 2.26194671058465 6 2.51327412287183 6 2.76460153515902 6 3.0159289474462 6 3.26725635973338 6 3.51858377202057 6 3.76991118430775 6 4.02123859659493 6 4.27256600888212 6 4.5238934211693 6 4.77522083345649 6 5.02654824574367 6 5.27787565803085 6 5.52920307031804 6 5.78053048260522 6 6.03185789489241 6 6.28318530717959 0 0 0 0.251327412287183 0 0.502654824574367 0 0.75398223686155 0 1.00530964914873 0 1.25663706143592 0 1.5079644737231 0 1.75929188601028 0 2.01061929829747 0 2.26194671058465 0 2.51327412287183 0 2.76460153515902 0 3.0159289474462 0 3.26725635973338 0 3.51858377202057 0 3.76991118430775 0 4.02123859659493 0 4.27256600888212 0 4.5238934211693 0 4.77522083345649 0 5.02654824574367 0 5.27787565803085 0 5.52920307031804 0 5.78053048260522 0 6.03185789489241 0 28 29 3 29 30 4 31 32 6 32 33 7 30 31 5 34 35 9 35 36 10 37 38 12 39 40 14 38 39 13 36 37 11 33 34 8 3 1 28 4 3 29 6 5 31 7 6 32 4 30 5 9 8 34 10 9 35 12 11 37 14 13 39 12 38 13 10 36 11 7 33 8 40 41 14 41 42 16 42 43 17 44 45 19 45 46 20 43 44 18 47 48 22 48 49 23 50 51 25 52 27 2 51 52 26 49 50 24 46 47 21 16 15 41 17 16 42 19 18 44 20 19 45 17 43 18 22 21 47 23 22 48 25 24 50 2 26 52 25 51 26 23 49 24 20 46 21 41 15 14 
34 33 1 0
1 -2.44921270764475e-16 6 0.981928697262707 0.18925124436041 6 0.928367933016073 0.371662455660328 6 0.841253532831181 0.540640817455598 6 0.72373403810507 0.690079011482112 6 0.580056909571198 0.814575952050336 6 0.415415013001886 0.909631995354518 6 0.235758935509427 0.971811568323542 6 0.0475819158237424 0.998867339183008 6 -0.142314838273285 0.989821441880933 6 -0.327067963317421 0.945000818714669 6 -0.5 0.866025403784439 6 -0.654860733945285 0.755749574354258 6 -0.786053094742788 0.618158986220605 6 -0.888835448654924 0.45822652172741 6 -0.959492973614497 0.281732556841429 6 -0.995471922573085 0.095056043304182 6 -0.995471922573084 -0.0950560433041835 6 -0.959492973614497 -0.281732556841431 6 -0.888835448654923 -0.458226521727411 6 -0.786053094742787 -0.618158986220606 6 -0.654860733945284 -0.755749574354259 6 -0.499999999999999 -0.866025403784439 6 -0.32706796331742 -0.945000818714669 6 -0.142314838273283 -0.989821441880933 6 0.0475819158237442 -0.998867339183008 6 0.235758935509429 -0.971811568323541 6 0.415415013001888 -0.909631995354517 6 0.5800569095712 -0.814575952050334 6 0.723734038105072 -0.69007901148211 6 0.841253532831183 -0.540640817455595 6 0.928367933016074 -0.371662455660325 6 0.981928697262707 -0.189251244360407 6 0.00226403871345765 5.55111512312578e-17 6 1 0 0.981928697262707 0.18925124436041 0.928367933016073 0.371662455660328 0.841253532831181 0.540640817455597 0.72373403810507 0.690079011482112 0.580056909571198 0.814575952050336 0.415415013001886 0.909631995354518 0.235758935509427 0.971811568323542 0.0475819158237424 0.998867339183008 -0.142314838273285 0.989821441880933 -0.327067963317421 0.945000818714669 -0.5 0.866025403784439 -0.654860733945285 0.755749574354258 -0.786053094742788 0.618158986220605 -0.888835448654924 0.45822652172741 -0.959492973614497 0.281732556841429 -0.995471922573085 0.095056043304182 -0.995471922573084 -0.0950560433041835 -0.959492973614497 -0.281732556841431 -0.888835448654923 -0.458226521727412 -0.786053094742787 -0.618158986220606 -0.654860733945284 -0.755749574354259 -0.499999999999999 -0.866025403784439 -0.32706796331742 -0.945000818714669 -0.142314838273284 -0.989821441880933 0.0475819158237442 -0.998867339183008 0.235758935509429 -0.971811568323541 0.415415013001888 -0.909631995354517 0.5800569095712 -0.814575952050334 0.723734038105072 -0.69007901148211 0.841253532831183 -0.540640817455595 0.928367933016074 -0.371662455660325 0.981928697262707 -0.189251244360407 0.00226403871345771 0 34 19 20 34 18 19 34 20 21 23 24 34 23 34 22 34 21 22 25 34 24 34 15 16 34 14 15 16 17 34 13 34 12 34 13 14 34 11 12 11 34 10 34 9 10 17 18 34 25 26 34 27 28 34 29 34 28 29 30 34 32 34 31 34 32 33 30 31 34 34 33 1 6 7 34 9 34 8 8 34 7 34 2 3 6 34 5 34 3 4 5 34 4 2 34 1 27 34 26 
34 33 1 0
1 -2.44921270764475e-16 0 0.981928697262707 0.18925124436041 0 0.928367933016073 0.371662455660328 0 0.841253532831181 0.540640817455598 0 0.72373403810507 0.690079011482112 0 0.580056909571198 0.814575952050336 0 0.415415013001886 0.909631995354518 0 0.235758935509427 0.971811568323542 0 0.0475819158237424 0.998867339183008 0 -0.142314838273285 0.989821441880933 0 -0.327067963317421 0.945000818714669 0 -0.5 0.866025403784439 0 -0.654860733945285 0.755749574354258 0 -0.786053094742788 0.618158986220605 0 -0.888835448654924 0.45822652172741 0 -0.959492973614497 0.281732556841429 0 -0.995471922573085 0.095056043304182 0 -0.995471922573084 -0.0950560433041835 0 -0.959492973614497 -0.281732556841431 0 -0.888835448654923 -0.458226521727411 0 -0.786053094742787 -0.618158986220606 0 -0.654860733945284 -0.755749574354259 0 -0.499999999999999 -0.866025403784439 0 -0.32706796331742 -0.945000818714669 0 -0.142314838273283 -0.989821441880933 0 0.0475819158237442 -0.998867339183008 0 0.235758935509429 -0.971811568323541 0 0.415415013001888 -0.909631995354517 0 0.5800569095712 -0.814575952050334 0 0.723734038105072 -0.69007901148211 0 0.841253532831183 -0.540640817455595 0 0.928367933016074 -0.371662455660325 0 0.981928697262707 -0.189251244360407 0 0.00226403871345765 5.55111512312578e-17 0 1 -2.22044604925031e-16 0.981928697262707 0.18925124436041 0.928367933016073 0.371662455660328 0.841253532831181 0.540640817455597 0.72373403810507 0.690079011482112 0.580056909571198 0.814575952050336 0.415415013001886 0.909631995354518 0.235758935509427 0.971811568323542 0.0475819158237424 0.998867339183008 -0.142314838273285 0.989821441880933 -0.327067963317421 0.945000818714669 -0.5 0.866025403784439 -0.654860733945285 0.755749574354258 -0.786053094742788 0.618158986220605 -0.888835448654924 0.45822652172741 -0.959492973614497 0.281732556841429 -0.995471922573085 0.095056043304182 -0.995471922573084 -0.0950560433041835 -0.959492973614497 -0.281732556841431 -0.888835448654923 -0.458226521727412 -0.786053094742787 -0.618158986220606 -0.654860733945284 -0.755749574354259 -0.499999999999999 -0.866025403784439 -0.32706796331742 -0.945000818714669 -0.142314838273284 -0.989821441880933 0.0475819158237442 -0.998867339183008 0.235758935509429 -0.971811568323541 0.415415013001888 -0.909631995354517 0.5800569095712 -0.814575952050334 0.723734038105072 -0.69007901148211 0.841253532831183 -0.540640817455595 0.928367933016074 -0.371662455660325 0.981928697262707 -0.189251244360407 0.00226403871345771 0 34 19 20 34 18 19 34 20 21 23 24 34 23 34 22 34 21 22 25 34 24 34 15 16 34 14 15 16 17 34 13 34 12 34 13 14 34 11 12 11 34 10 34 9 10 17 18 34 25 26 34 27 28 34 29 34 28 29 30 34 32 34 31 34 32 33 30 31 34 34 33 1 6 7 34 9 34 8 8 34 7 34 2 3 6 34 5 34 3 4 5 34 4 2 34 1 27 34 26 

TShapes 10
Ve
1e-07
1 -2.44921270764475e-16 6
0 0

0101101
*
Ed
 1e-07 1 1 0
1  1 0 0 6.28318530717959
2  1 1 0 0 6.28318530717959
2  2 2 0 0 6.28318530717959
6  1 2 0
0

0101100
+10 0 -10 0 *
Ve
1e-07
1 -2.44921270764475e-16 0
0 0

0101101
*
Ed
 1e-07 1 1 0
1  2 0 0 6
3  3 4CN 1 0 0 6
7  2 3 1 0
0

0101000
-10 0 +8 0 *
Ed
 1e-07 1 1 0
1  3 0 0 6.28318530717959
2  5 1 0 0 6.28318530717959
2  6 3 0 0 6.28318530717959
6  4 3 0
0

0101100
+8 0 -8 0 *
Wi

0101000
-9 0 +7 0 +6 0 -7 0 *
Fa
0  1e-07 1 0
2  1
0101000
+5 0 *
Sh

0101100
+4 0 *
So

0100100
+3 0 *
Co

1100000
+2 0 *

+1 0 