DBRep_DrawableShape

CASCADE Topology V1, (c) Matra-Datavision
Locations 0
Curve2ds 6
1 0 600 1 0 
2 0 0 1 0 -0 1 1000
1 6.2831853071795862 -0 0 1 
1 0 -0 0 1 
1 0 0 1 0 
2 0 0 1 0 -0 1 1000
Curves 3
2 0 0 600 0 0 1 1 0 -0 -0 1 0 1000
1 1000 -2.4492127076447545e-13 0 0 0 1 
2 0 0 0 0 0 1 1 0 -0 -0 1 0 1000
Polygon3D 0
PolygonOnTriangulations 0
Surfaces 3
2 0 0 0 0 0 1 1 0 -0 -0 1 0 1000
1 0 0 600 0 0 1 1 0 -0 -0 1 0 
1 0 0 0 0 0 1 1 0 -0 -0 1 0 
Triangulations 0

TShapes 10
Ve
1e-07
1000 -2.44921270764475e-13 600
0 0

0101101
*
Ed
 1e-07 1 1 0
1  1 0 0 6.28318530717959
2  1 1 0 0 6.28318530717959
2  2 2 0 0 6.28318530717959
0

0101100
+10 0 -10 0 *
Ve
1e-07
1000 -2.44921270764475e-13 0
0 0

0101101
*
Ed
 1e-07 1 1 0
1  2 0 0 600
3  3 4CN 1 0 0 600
0

0101000
-10 0 +8 0 *
Ed
 1e-07 1 1 0
1  3 0 0 6.28318530717959
2  5 1 0 0 6.28318530717959
2  6 3 0 0 6.28318530717959
0

0101100
+8 0 -8 0 *
Wi

0101000
-9 0 +7 0 +6 0 -7 0 *
Fa
0  1e-07 1 0

0111000
+5 0 *
Sh

0101100
+4 0 *
So

0100100
+3 0 *
Co

1100000
+2 0 *

+1 0 