DBRep_DrawableShape

CASCADE Topology V1, (c) Matra-Datavision
Locations 0
Curve2ds 4
1 0 1.570796326794897 1 0 
1 6.283185307179586 -6.283185307179586 0 1 
1 0 -6.283185307179586 0 1 
1 0 -1.570796326794897 1 0 
Curves 1
2 0 0 0 -2.449212707644755e-16 -1 0 1 -2.449212707644755e-16 0 0 0 1 1
Polygon3D 0
PolygonOnTriangulations 4
2 1 2 
p 1e-05 1 0 6.28318530717959 
26 3 4 5 6 7 8 9 10 11 12 13 14 15 16 17 18 19 20 21 22 23 24 25 26 27 2 
p 0.108239230029239 1 4.71238898038469 4.83805268652828 4.96371639267187 5.08938009881547 5.21504380495906 5.34070751110265 5.46637121724624 5.59203492338983 5.71769862953342 5.84336233567702 5.96902604182061 6.0946897479642 6.22035345410779 6.34601716025138 6.47168086639498 6.59734457253857 6.72300827868216 6.84867198482575 6.97433569096934 7.09999939711294 7.22566310325653 7.35132680940012 7.47699051554371 7.6026542216873 7.7283179278309 7.85398163397448 
26 28 29 30 31 32 33 34 35 36 37 38 39 40 41 42 43 44 45 46 47 48 49 50 51 52 1 
p 0.108239230029239 1 4.71238898038469 4.83805268652828 4.96371639267187 5.08938009881547 5.21504380495906 5.34070751110265 5.46637121724624 5.59203492338983 5.71769862953342 5.84336233567702 5.96902604182061 6.0946897479642 6.22035345410779 6.34601716025138 6.47168086639498 6.59734457253857 6.72300827868216 6.84867198482575 6.97433569096934 7.09999939711294 7.22566310325653 7.35132680940012 7.47699051554371 7.6026542216873 7.7283179278309 7.85398163397448 
2 28 3 
p 1e-05 1 0 6.28318530717959 
Surfaces 1
4 0 0 0 0 0 1 1 0 -0 -0 1 0 1
Triangulations 1
217 380 1 0.0440526352641695
6.12303176911189e-17 -1.49966072182214e-32 1 6.12303176911189e-17 -1.49966072182214e-32 1 6.12303176911189e-17 -1.49966072182214e-32 -1 0.125333233564304 -3.06967748335902e-17 -0.992114701314478 0.248689887164855 -6.09094431906903e-17 -0.968583161128631 0.368124552684678 -9.01615332431355e-17 -0.929776485888251 0.481753674101716 -1.17991722056447e-16 -0.876306680043863 0.587785252292474 -1.4396111092809e-16 -0.809016994374947 0.684547105928689 -1.67660147082199e-16 -0.728968627421411 0.77051324277579 -1.88715082561503e-16 -0.637423989748689 0.844327925502016 -2.06793868455887e-16 -0.535826794978996 0.90482705246602 -2.21611391512052e-16 -0.425779291565071 0.951056516295154 -2.32933970539844e-16 -0.309016994374946 0.982287250728689 -2.40583041704213e-16 -0.187381314585723 0.998026728428272 -2.44437974583564e-16 -0.0627905195293115 0.998026728428271 -2.44437974583564e-16 0.0627905195293154 0.982287250728688 -2.40583041704213e-16 0.187381314585727 0.951056516295153 -2.32933970539844e-16 0.30901699437495 0.904827052466018 -2.21611391512052e-16 0.425779291565075 0.844327925502014 -2.06793868455887e-16 0.535826794978999 0.770513242775787 -1.88715082561503e-16 0.637423989748692 0.684547105928686 -1.67660147082198e-16 0.728968627421414 0.58778525229247 -1.4396111092809e-16 0.809016994374949 0.481753674101712 -1.17991722056446e-16 0.876306680043865 0.368124552684675 -9.01615332431346e-17 0.929776485888253 0.248689887164851 -6.09094431906893e-17 0.968583161128632 0.1253332335643 -3.06967748335892e-17 0.992114701314478 6.12303176911189e-17 -1.49966072182214e-32 -1 0.125333233564304 -3.06967748335902e-17 -0.992114701314478 0.248689887164855 -6.09094431906903e-17 -0.968583161128631 0.368124552684678 -9.01615332431355e-17 -0.929776485888251 0.481753674101716 -1.17991722056447e-16 -0.876306680043863 0.587785252292474 -1.4396111092809e-16 -0.809016994374947 0.684547105928689 -1.67660147082199e-16 -0.728968627421411 0.77051324277579 -1.88715082561503e-16 -0.637423989748689 0.844327925502016 -2.06793868455887e-16 -0.535826794978996 0.90482705246602 -2.21611391512052e-16 -0.425779291565071 0.951056516295154 -2.32933970539844e-16 -0.309016994374946 0.982287250728689 -2.40583041704213e-16 -0.187381314585723 0.998026728428272 -2.44437974583564e-16 -0.0627905195293115 0.998026728428271 -2.44437974583564e-16 0.0627905195293154 0.982287250728688 -2.40583041704213e-16 0.187381314585727 0.951056516295153 -2.32933970539844e-16 0.30901699437495 0.904827052466018 -2.21611391512052e-16 0.425779291565075 0.844327925502014 -2.06793868455887e-16 0.535826794978999 0.770513242775787 -1.88715082561503e-16 0.637423989748692 0.684547105928686 -1.67660147082198e-16 0.728968627421414 0.58778525229247 -1.4396111092809e-16 0.809016994374949 0.481753674101712 -1.17991722056446e-16 0.876306680043865 0.368124552684675 -9.01615332431346e-17 0.929776485888253 0.248689887164851 -6.09094431906893e-17 0.968583161128632 0.1253332335643 -3.06967748335892e-17 0.992114701314478 0.400856306060179 0.166040118532906 -0.900968867902419 0.166040118532906 0.400856306060179 -0.900968867902419 -0.166040118532906 0.400856306060179 -0.900968867902419 -0.400856306060179 0.166040118532906 -0.900968867902419 -0.400856306060179 -0.166040118532906 -0.900968867902419 -0.166040118532907 -0.400856306060179 -0.900968867902419 0.166040118532906 -0.400856306060179 -0.900968867902419 0.400856306060179 -0.166040118532907 -0.900968867902419 0.677085925295762 0.390915741234015 -0.623489801858733 0.390915741234015 0.677085925295762 -0.623489801858733 4.78717900524359e-17 0.78183148246803 -0.623489801858733 -0.390915741234015 0.677085925295762 -0.623489801858733 -0.677085925295762 0.390915741234015 -0.623489801858733 -0.78183148246803 4.42946505390002e-16 -0.623489801858733 -0.677085925295762 -0.390915741234014 -0.623489801858733 -0.390915741234015 -0.677085925295762 -0.623489801858733 -1.43615370157308e-16 -0.78183148246803 -0.623489801858733 0.390915741234015 -0.677085925295762 -0.623489801858733 0.677085925295762 -0.390915741234015 -0.623489801858733 0.95048443395121 0.216941869558779 -0.222520933956314 0.762229334880576 0.607857610792794 -0.222520933956314 0.423005367907524 0.878379697324927 -0.222520933956314 5.96951457888323e-17 0.974927912181824 -0.222520933956314 -0.423005367907524 0.878379697324927 -0.222520933956314 -0.762229334880576 0.607857610792794 -0.222520933956314 -0.95048443395121 0.216941869558779 -0.222520933956314 -0.95048443395121 -0.216941869558779 -0.222520933956314 -0.762229334880576 -0.607857610792794 -0.222520933956314 -0.423005367907524 -0.878379697324927 -0.222520933956314 -1.79085437366497e-16 -0.974927912181824 -0.222520933956314 0.423005367907524 -0.878379697324927 -0.222520933956314 0.762229334880576 -0.607857610792794 -0.222520933956314 0.95048443395121 -0.216941869558779 -0.222520933956314 0.878379697324927 0.423005367907524 0.222520933956314 0.607857610792794 0.762229334880576 0.222520933956314 0.216941869558779 0.95048443395121 0.222520933956314 -0.216941869558779 0.95048443395121 0.222520933956314 -0.607857610792794 0.762229334880576 0.222520933956314 -0.878379697324927 0.423005367907524 0.222520933956314 -0.974927912181824 1.19390291577665e-16 0.222520933956314 -0.878379697324927 -0.423005367907524 0.222520933956314 -0.607857610792794 -0.762229334880576 0.222520933956314 -0.216941869558779 -0.95048443395121 0.222520933956314 0.216941869558779 -0.95048443395121 0.222520933956314 0.607857610792794 -0.762229334880576 0.222520933956314 0.878379697324927 -0.423005367907524 0.222520933956314 0.755191220721739 0.202352877723464 0.623489801858733 0.552838342998275 0.552838342998275 0.623489801858733 0.202352877723464 0.755191220721739 0.623489801858733 -0.202352877723463 0.755191220721739 0.623489801858733 -0.552838342998275 0.552838342998276 0.623489801858733 -0.755191220721739 0.202352877723464 0.623489801858733 -0.755191220721739 -0.202352877723463 0.623489801858733 -0.552838342998276 -0.552838342998275 0.623489801858733 -0.202352877723464 -0.755191220721739 0.623489801858733 0.202352877723463 -0.755191220721739 0.623489801858733 0.552838342998275 -0.552838342998275 0.623489801858733 0.755191220721739 -0.202352877723464 0.623489801858733 0.3068021341766 0.3068021341766 0.900968867902419 2.65668391871786e-17 0.433883739117558 0.900968867902419 -0.3068021341766 0.3068021341766 0.900968867902419 -0.433883739117558 5.31336783743572e-17 0.900968867902419 -0.3068021341766 -0.3068021341766 0.900968867902419 -7.97005175615359e-17 -0.433883739117558 0.900968867902419 0.3068021341766 -0.3068021341766 0.900968867902419 0.892305871961299 0.312231328709008 -0.326039611452341 0.934166036056078 0.326878833635275 -0.143122483211118 0.972201816005635 0.221898720293539 -0.0747300935864228 0.940805102207075 0.329201943356784 -0.0806959735752161 0.818640654162847 0.219354102174221 0.530764785202604 0.752278408043236 0.31160391929195 0.580499952001575 0.784469269080855 0.324937810518199 0.528226641853086 0.851736422785435 0.410174643127384 0.326039611452343 0.930669592648294 0.365260899042435 0.0209424198833577 0.763967924918067 0.480032862950794 0.431186108523509 0.892305871961299 -0.312231328709008 -0.326039611452341 0.934166036056078 -0.326878833635275 -0.143122483211118 0.972201816005634 -0.22189872029354 -0.0747300935864228 0.940805102207075 -0.329201943356784 -0.0806959735752161 0.763967924918067 -0.480032862950794 0.431186108523509 0.784469269080855 -0.3249378105182 0.528226641853086 0.851736422785434 -0.410174643127384 0.326039611452343 0.818640654162847 -0.219354102174222 0.530764785202604 0.752278408043236 -0.31160391929195 0.580499952001575 0.930669592648294 -0.365260899042435 0.0209424198833577 0.729262134284596 0.676656375204191 -0.101552397284363 0.615396968912706 0.680050041327058 -0.398520403422611 0.674787896815994 0.559083796760509 -0.481753674101715 0.716961873760432 0.640716302808839 -0.27467852280239 0.698219802547349 0.715849404089571 0.00698126029796178 0.503273990551232 0.681912042145813 0.530764785202603 0.546483498246903 0.770196413135472 0.328866646738584 0.431098684146077 0.791629932196295 0.432984959298138 0.615396968912706 -0.680050041327058 -0.398520403422611 0.716961873760432 -0.640716302808839 -0.27467852280239 0.674787896815994 -0.559083796760509 -0.481753674101715 0.698219802547348 -0.715849404089571 0.00698126029796178 0.729262134284596 -0.676656375204191 -0.101552397284363 0.546483498246903 -0.770196413135472 0.328866646738584 0.431098684146077 -0.791629932196295 0.432984959298138 0.503273990551232 -0.681912042145813 0.530764785202603 0.220037614713592 0.879408376686593 -0.422166264787471 0.308086295076973 0.79961128306578 -0.515465450616858 0.341600861499473 0.886595436164161 -0.311861161409528 0.326352987409784 0.945245106941945 0.00232710356895035 0.374692251668293 0.920779306760718 -0.108495091045615 0.308086295076973 -0.79961128306578 -0.515465450616858 0.220037614713592 -0.879408376686592 -0.422166264787471 0.341600861499473 -0.886595436164161 -0.311861161409528 0.374692251668292 -0.920779306760718 -0.108495091045615 0.326352987409784 -0.945245106941945 0.00232710356895035 0.00374460584883522 -0.90110527956225 0.433584193752582 0.100077206319303 -0.841056238582445 0.531609778236699 0.129054755949556 -0.935185184649288 0.329808338856489 0.00374460584883524 0.90110527956225 0.433584193752582 0.129054755949557 0.935185184649288 0.329808338856489 0.100077206319303 0.841056238582445 0.531609778236699 -0.216716467280383 0.876439433402824 -0.429985921148643 -0.0961472480470324 0.941105916443192 -0.324153298191768 -0.117968900015888 0.84193080364988 -0.526531917830732 -0.113340806361741 0.993555866521843 0.000775701811983604 -0.0577867622260972 0.992160390723948 -0.110808163913708 -0.419913107429299 0.797185369779015 0.433783895988965 -0.322434911188896 0.783024486406219 0.531891325117158 -0.216716467280384 -0.876439433402824 -0.429985921148643 -0.117968900015888 -0.84193080364988 -0.526531917830732 -0.0961472480470329 -0.941105916443192 -0.324153298191768 -0.0577867622260968 -0.992160390723948 -0.110808163913708 -0.4199131074293 -0.797185369779014 0.433783895988965 -0.322434911188897 -0.783024486406218 0.531891325117158 -0.113340806361741 -0.993555866521842 0.000775701811983604 -0.532422957682156 0.846478426940663 0.00025856729371062 -0.48130060516489 0.869425006454188 -0.111579055472101 -0.600618179882226 0.672404421050881 -0.432585363305547 -0.509605221878467 0.67763503777021 -0.530201163163912 -0.744194228884344 0.507886531825747 0.433850458666637 -0.661652875278799 0.528400663412109 0.531985161015739 -0.626032480247065 0.539247837406274 0.563289537918436 -0.509605221878467 -0.677635037770209 -0.530201163163912 -0.600618179882226 -0.672404421050881 -0.432585363305547 -0.744194228884344 -0.507886531825746 0.433850458666637 -0.661652875278799 -0.528400663412108 0.531985161015739 -0.48130060516489 -0.869425006454188 -0.111579055472101 -0.532422957682156 -0.846478426940663 0.00025856729371062 -0.626032480247066 -0.539247837406273 0.563289537918436 -0.844867679274155 0.313558278936216 -0.433451047095819 -0.773185331198948 0.346085323099315 -0.53142204767399 -0.810577326503984 0.574853986566336 -0.111836004428113 -0.846806070634868 0.531901749675046 8.61890987572212e-05 -0.930882745051576 1.13996492425378e-16 0.365318101064323 -0.900984894165684 5.10452852346209e-16 0.433850458666637 -0.742381312136429 -0.363300725972259 -0.562923236239742 -0.773185331198948 -0.346085323099314 -0.53142204767399 -0.810577326503983 -0.574853986566337 -0.111836004428113 -0.809838106209394 0.163842044221384 0.563309884767292 -0.83473776948989 0.142025933108293 0.532016438196944 -0.846806070634868 -0.531901749675046 8.61890987572212e-05 -0.742381312136428 0.36330072597226 -0.562923236239742 -0.844867679274155 -0.313558278936216 -0.433451047095819 -0.862742181275995 -0.0754801604072766 0.499978673577214 -0.994419693410528 0.0745214538520757 -0.0746727947319835 -0.99999999628572 1.22460634927385e-16 8.61890987572212e-05 -0.979689630933142 -0.166378396319336 -0.111921652419404 -0.84710719938269 1.03737285873272e-16 -0.531422047673989 -0.997199501588724 1.22117684567406e-16 0.0747873921941374 0 1.5707963267949 6.28318530717959 1.5707963267949 6.28318530717959 -1.5707963267949 6.28318530717959 -1.4451326206513 6.28318530717959 -1.31946891450771 6.28318530717959 -1.19380520836412 6.28318530717959 -1.06814150222053 6.28318530717959 -0.942477796076937 6.28318530717959 -0.816814089933345 6.28318530717959 -0.691150383789753 6.28318530717959 -0.565486677646161 6.28318530717959 -0.439822971502569 6.28318530717959 -0.314159265358978 6.28318530717959 -0.188495559215386 6.28318530717959 -0.0628318530717937 6.28318530717959 0.0628318530717982 6.28318530717959 0.18849555921539 6.28318530717959 0.314159265358982 6.28318530717959 0.439822971502574 6.28318530717959 0.565486677646166 6.28318530717959 0.691150383789758 6.28318530717959 0.81681408993335 6.28318530717959 0.942477796076941 6.28318530717959 1.06814150222053 6.28318530717959 1.19380520836413 6.28318530717959 1.31946891450772 6.28318530717959 1.44513262065131 0 -1.5707963267949 0 -1.4451326206513 0 -1.31946891450771 0 -1.19380520836412 0 -1.06814150222053 0 -0.942477796076937 0 -0.816814089933345 0 -0.691150383789753 0 -0.565486677646161 0 -0.439822971502569 0 -0.314159265358978 0 -0.188495559215386 0 -0.0628318530717937 0 0.0628318530717982 0 0.18849555921539 0 0.314159265358982 0 0.439822971502574 0 0.565486677646166 0 0.691150383789758 0 0.81681408993335 0 0.942477796076941 0 1.06814150222053 0 1.19380520836413 0 1.31946891450772 0 1.44513262065131 0.392699081698724 -1.12199737628207 1.17809724509617 -1.12199737628207 1.96349540849362 -1.12199737628207 2.74889357189107 -1.12199737628207 3.53429173528852 -1.12199737628207 4.31968989868597 -1.12199737628207 5.10508806208341 -1.12199737628207 5.89048622548086 -1.12199737628207 0.523598775598299 -0.673198425769241 1.0471975511966 -0.673198425769241 1.5707963267949 -0.673198425769241 2.0943951023932 -0.673198425769241 2.61799387799149 -0.673198425769241 3.14159265358979 -0.673198425769241 3.66519142918809 -0.673198425769241 4.18879020478639 -0.673198425769241 4.71238898038469 -0.673198425769241 5.23598775598299 -0.673198425769241 5.75958653158129 -0.673198425769241 0.224399475256414 -0.224399475256414 0.673198425769241 -0.224399475256414 1.12199737628207 -0.224399475256414 1.5707963267949 -0.224399475256414 2.01959527730772 -0.224399475256414 2.46839422782055 -0.224399475256414 2.91719317833338 -0.224399475256414 3.36599212884621 -0.224399475256414 3.81479107935903 -0.224399475256414 4.26359002987186 -0.224399475256414 4.71238898038469 -0.224399475256414 5.16118793089752 -0.224399475256414 5.60998688141034 -0.224399475256414 6.05878583192317 -0.224399475256414 0.448798950512828 0.224399475256414 0.897597901025655 0.224399475256414 1.34639685153848 0.224399475256414 1.79519580205131 0.224399475256414 2.24399475256414 0.224399475256414 2.69279370307697 0.224399475256414 3.14159265358979 0.224399475256414 3.59039160410262 0.224399475256414 4.03919055461545 0.224399475256414 4.48798950512828 0.224399475256414 4.9367884556411 0.224399475256414 5.38558740615393 0.224399475256414 5.83438635666676 0.224399475256414 0.261799387799149 0.673198425769241 0.785398163397448 0.673198425769241 1.30899693899575 0.673198425769241 1.83259571459405 0.673198425769241 2.35619449019234 0.673198425769241 2.87979326579064 0.673198425769241 3.40339204138894 0.673198425769241 3.92699081698724 0.673198425769241 4.45058959258554 0.673198425769241 4.97418836818384 0.673198425769241 5.49778714378214 0.673198425769241 6.02138591938044 0.673198425769241 0.785398163397448 1.12199737628207 1.5707963267949 1.12199737628207 2.35619449019234 1.12199737628207 3.14159265358979 1.12199737628207 3.92699081698724 1.12199737628207 4.71238898038469 1.12199737628207 5.49778714378214 1.12199737628207 0.336599212884621 -0.332111223379492 0.336599212884621 -0.143615664164104 0.224399475256414 -0.0747998250854698 0.336599212884621 -0.0807838110923078 0.261799387799149 0.559502691639327 0.392699081698724 0.619342551707704 0.392699081698724 0.556510698635908 0.448798950512828 0.332111223379494 0.373999125427356 0.0209439510239326 0.560998688141034 0.44580695750941 5.94658609429497 -0.332111223379492 5.94658609429497 -0.143615664164104 6.05878583192317 -0.0747998250854698 5.94658609429497 -0.0807838110923078 5.72218661903855 0.44580695750941 5.89048622548086 0.556510698635908 5.83438635666676 0.332111223379494 6.02138591938044 0.559502691639327 5.89048622548086 0.619342551707704 5.90918618175223 0.0209439510239326 0.747998250854713 -0.101727762116241 0.835264713454429 -0.409903041468382 0.691898382040609 -0.502654824574366 0.729298294583345 -0.278255349317953 0.797864800911694 0.00698131700797755 0.934997813568391 0.559502691639326 0.953697769839759 0.335103216382912 1.07213082622509 0.447801619511688 5.44792059372516 -0.409903041468382 5.55388701259624 -0.278255349317953 5.59128692513898 -0.502654824574366 5.48532050626789 0.00698131700797755 5.53518705632487 -0.101727762116241 5.32948753733983 0.335103216382912 5.2110544809545 0.447801619511688 5.3481874936112 0.559502691639326 1.32561912234807 -0.435833647498012 1.20303052012466 -0.541550733618812 1.20303052012466 -0.317151258362398 1.23835265974836 0.00232710566932592 1.1843305638533 -0.108709079124218 5.08015478705492 -0.541550733618812 4.95756618483151 -0.435833647498012 5.08015478705492 -0.317151258362398 5.09885474332629 -0.108709079124218 5.04483264743123 0.00232710566932592 4.71654452622277 0.448466506845781 4.83082203677002 0.560500022640465 4.84952199304139 0.336100547384051 1.56664078095681 0.448466506845781 1.4336633141382 0.336100547384051 1.45236327040957 0.560500022640465 1.81320316734966 -0.444477182841223 1.6726071998279 -0.330116561377213 1.71000711237063 -0.554516036633627 1.68438124636913 0.000775701889775382 1.62897396852804 -0.111036184793544 2.05561000790443 0.448688135957145 1.96141763557458 0.560832466307511 4.46998213982992 -0.444477182841223 4.57317819480895 -0.554516036633627 4.61057810735169 -0.330116561377213 4.65421133865155 -0.111036184793544 4.22757529927515 0.448688135957145 4.32176767160501 0.560832466307511 4.59880406081046 0.000775701889775382 2.13225674225127 0.000258567296591794 2.07638773709484 -0.111811886683319 2.29986375772057 -0.447358361288959 2.21559852267058 -0.558837804305232 2.54273232559068 0.4487620123276 2.46770163684754 0.560943280863193 2.43053258796247 0.598361662498543 4.06758678450901 -0.558837804305232 3.98332154945902 -0.447358361288959 3.74045298158891 0.4487620123276 3.81548367033205 0.560943280863193 4.20679757008475 -0.111811886683319 4.15092856492831 0.000258567296591794 3.85265271921711 0.598361662498543 2.78621652988125 -0.448318754104871 2.72072820565518 -0.5602783935291 2.52472496029233 -0.112070453979911 2.58074787455387 8.61890988639313e-05 3.14159265358979 0.373974499970538 3.14159265358979 0.4487620123276 3.5967018774123 -0.597918404275814 3.5624571015244 -0.5602783935291 3.75846034688726 -0.112070453979911 2.94197254425676 0.598386287955361 2.97306218348981 0.560980219048421 3.70243743262571 8.61890988639313e-05 2.68648342976729 -0.597918404275814 3.49696877729834 -0.448318754104871 3.22885911618951 0.523574150141481 3.06679282850432 -0.0747423656862287 3.14159265358979 8.61890988639313e-05 3.30981530547955 -0.112156643078775 3.14159265358979 -0.5602783935291 3.14159265358979 0.074857284484714 118 73 72 54 30 29 53 30 54 37 36 140 31 53 32 53 31 30 119 138 121 33 32 53 33 61 34 72 73 119 29 28 54 121 138 126 120 119 121 35 34 61 36 35 61 138 119 73 45 44 122 38 118 72 39 72 119 72 39 38 38 37 118 124 123 122 62 140 61 99 122 123 33 53 61 40 120 126 53 62 61 62 53 54 62 54 63 118 141 73 64 55 65 56 55 28 155 172 154 64 63 55 55 56 65 55 63 54 54 28 55 155 139 140 119 120 39 141 118 139 138 158 142 76 171 170 156 139 154 126 138 142 78 77 198 66 65 56 78 200 77 186 198 77 91 90 201 170 186 76 77 76 186 157 158 174 56 57 66 155 140 62 28 3 56 201 184 200 122 44 127 39 120 40 41 126 42 127 124 122 86 87 125 43 86 125 126 86 42 46 45 99 125 44 43 86 126 142 42 86 43 125 127 44 100 124 143 48 47 100 49 48 111 128 146 148 137 15 16 51 50 111 130 129 14 1 52 112 51 111 52 14 129 85 49 111 50 13 128 12 46 99 47 144 125 87 45 122 99 144 145 127 126 120 121 124 100 123 127 125 144 74 158 138 188 90 91 184 89 173 88 157 173 168 167 145 126 41 40 188 175 90 100 101 111 127 143 124 111 112 52 112 111 101 101 102 112 111 48 100 102 103 113 169 167 176 113 104 114 104 113 103 175 189 176 102 113 112 169 143 145 112 113 1 194 212 193 100 47 99 90 184 201 1 113 114 198 79 78 100 99 123 57 68 67 68 57 58 192 177 81 204 67 191 58 59 69 59 58 3 161 83 82 70 69 59 70 60 71 58 69 68 57 3 58 177 178 160 195 196 206 205 191 192 191 177 192 180 183 195 191 178 177 160 178 159 137 149 150 84 147 128 146 128 147 150 162 83 12 148 11 162 163 180 70 59 60 214 215 209 4 5 59 4 59 3 101 100 143 59 5 60 5 6 60 87 142 157 7 8 60 156 141 139 74 73 141 6 7 60 142 87 86 8 9 71 71 10 11 140 139 118 85 128 13 148 12 128 155 154 139 71 9 10 85 84 128 158 157 142 130 14 15 130 137 131 73 74 138 13 14 85 118 37 140 85 129 84 36 61 140 8 71 60 57 56 3 98 149 137 193 202 93 214 213 215 182 194 181 105 114 104 94 181 193 81 180 195 152 164 166 162 82 83 82 180 81 166 181 95 209 196 94 96 97 151 106 107 115 94 95 181 114 115 2 114 105 115 107 116 115 115 105 106 108 109 117 166 95 96 116 117 27 117 116 108 109 23 117 108 116 107 151 152 166 115 116 2 134 97 98 202 203 188 133 135 136 129 131 150 98 137 17 110 22 109 17 18 98 110 109 136 153 133 109 19 20 135 110 135 20 132 134 19 109 133 136 110 20 21 21 22 110 134 132 151 24 117 23 135 132 19 136 135 110 23 109 22 26 117 25 132 135 133 2 116 27 150 131 137 129 130 131 27 117 26 153 108 165 25 117 24 98 18 134 19 134 18 15 137 130 114 2 1 149 98 97 66 57 67 168 145 144 137 16 17 87 88 144 175 168 89 167 169 145 127 145 143 160 159 146 148 70 71 84 83 147 161 147 83 148 146 159 71 11 148 163 97 96 150 84 129 162 150 149 83 84 150 134 151 97 153 132 133 132 152 151 165 107 182 132 153 152 109 108 153 170 154 172 156 75 74 62 63 155 155 63 172 156 154 171 141 156 74 173 157 174 87 157 88 74 75 158 158 75 174 69 70 159 148 159 70 179 161 82 179 81 177 160 146 161 147 161 146 95 183 96 209 206 196 162 149 163 97 163 149 152 153 165 197 182 106 152 165 164 108 107 165 166 164 181 96 151 166 175 89 90 169 101 143 144 88 168 89 168 88 176 167 175 102 101 169 187 65 210 171 76 75 156 171 75 154 170 171 63 64 172 172 64 187 184 173 185 88 173 89 75 76 174 174 76 185 169 176 102 175 167 168 189 175 188 103 102 176 179 177 160 192 81 80 68 69 178 159 178 69 161 179 160 81 179 82 162 180 82 163 96 183 164 165 182 193 181 194 182 181 164 107 106 182 163 183 180 94 196 95 89 184 90 173 174 185 76 77 185 200 185 77 170 172 187 204 216 66 187 186 170 64 65 187 202 91 92 189 190 176 189 208 207 190 189 207 104 103 190 176 190 103 67 68 191 178 191 68 79 211 80 211 216 205 202 193 203 94 193 93 105 194 197 194 105 212 209 94 93 80 81 195 195 183 196 95 196 183 105 197 106 194 182 197 186 187 199 205 216 204 199 198 186 210 199 187 206 209 215 185 200 184 213 200 78 201 214 217 91 202 188 93 202 92 104 207 105 189 188 208 79 198 211 66 67 204 205 204 191 216 211 198 79 80 206 195 206 80 208 212 207 190 207 104 188 203 208 203 193 212 214 209 217 214 201 213 65 66 210 216 210 66 205 192 211 80 211 192 207 212 105 208 203 212 200 213 201 215 78 79 217 209 93 217 91 201 78 215 213 79 206 215 210 216 199 198 199 216 92 91 217 93 92 217 

TShapes 9
Ve
1e-07
6.12303176911189e-17 -1.49966072182214e-32 1
0 0

0101101
*
Ed
 1e-07 1 1 1
2  1 1 0 0 6.28318530717959
6  1 1 0
0

0101100
+9 0 -9 0 *
Ve
1e-07
6.12303176911189e-17 -1.49966072182214e-32 -1
0 0

0101101
*
Ed
 1e-07 1 1 0
1  1 0 4.71238898038469 7.85398163397448
3  2 3CN 1 0 4.71238898038469 7.85398163397448
7  2 3 1 0
0

0101000
-9 0 +7 0 *
Ed
 1e-07 1 1 1
2  4 1 0 0 6.28318530717959
6  4 1 0
0

0101100
+7 0 -7 0 *
Wi

0101000
-8 0 +6 0 +5 0 -6 0 *
Fa
0  1e-07 1 0
2  1
0101000
+4 0 *
Sh

0101100
+3 0 *
So

1100100
+2 0 *

+1 0 